<svg id="Layer_1" data-name="Layer 1" xmlns="http://www.w3.org/2000/svg" xmlns:xlink="http://www.w3.org/1999/xlink" viewBox="0 0 680.22 607.1">
  <defs>
    <style>.cls-1{fill:url(#linear-gradient);}.cls-2{fill:url(#linear-gradient-2);}</style>
    <linearGradient id="linear-gradient-2" x1="421.25" y1="494.17" x2="817.08" y2="494.17" gradientUnits="userSpaceOnUse">
      <stop offset="0" stop-color="aqua"/>
      <stop offset="0.48" stop-color="#0071bc"/>
      <stop offset="1" stop-color="#9e005d"/>
    </linearGradient>
    <linearGradient id="linear-gradient-3" x1="903.27" y1="364.41" x2="1299.11" y2="364.41" gradientTransform="matrix(-0.89, 0.45, 0.45, 0.89, 1775.67, -419.71)" gradientUnits="userSpaceOnUse">
      <stop offset="0" stop-color="lime"/><stop offset="0.57" stop-color="#39b54a"/>
      <stop offset="1" stop-color="#22b573"/>
    </linearGradient>
  </defs>
    <title>fly</title>
    <path id="left" class="cls-1" d="M768.5,391.5c-32.61-112.66-141.49-171.14-227-145-75.79,23.17-144.44,116.26-112,197,23.21,57.78,92.69,95.53,169,86-29.1,61.14-21,129.52,19,173,26.49,28.81,76.12,56.64,123,41,54.3-18.12,91.15-90,71-168Z" transform="translate(-421.25 -140.91)"/>
    <path id="right" class="cls-2" d="M774.68,374.22C753.4,258.89,824.56,157.84,912.73,142.94c78.15-13.22,181.21,39.28,188.35,126,5.11,62.06-40.1,126.92-112.61,152.57,53.39,41.64,76.75,106.42,60.47,163.2-10.79,37.62-42.71,84.72-91.63,91.73-56.67,8.11-121.78-39.63-138.7-118.44Z" transform="translate(-421.25 -140.91)"/>
</svg>