<svg xmlns="http://www.w3.org/2000/svg" xmlns:xlink="http://www.w3.org/1999/xlink" viewBox="0 0 1559 180"><defs><style>.cls-1{fill:url(#linear-gradient);}</style><linearGradient id="linear-gradient" x1="789.25" y1="-1017.91" x2="777.69" y2="402.62" gradientUnits="userSpaceOnUse"><stop offset="0.61" stop-color="#fff"/><stop offset="0.67" stop-color="#cfe4f2"/><stop offset="0.81" stop-color="#57a2d3"/><stop offset="0.91" stop-color="#0071bc"/></linearGradient></defs><title>ocean_svg</title><g id="Layer_2" data-name="Layer 2"><g id="Layer_1-2" data-name="Layer 1"><path id="ocean_svg" class="cls-1" d="M173,115c30.52-21.78,51.39-44.65,99-72A487.33,487.33,0,0,1,371,0c-49.12,95.52-51,122.06-43,128,15.23,11.25,64.44-52.67,162-87A380.12,380.12,0,0,1,602,20c-38.08,5.34-65.24,26.83-69,52-1.51,10.13-.22,27.35,11,36,25.7,19.82,78.22-24.86,149-52,39.44-15.12,98.28-30.07,179-25-30.09,4.09-52.16,22.65-56,45-.29,1.67-3.77,23.39,7,30,16.71,10.25,46.63-28.78,97-52,25.89-11.94,61.64-21.75,110-19-23.91,11.72-36.94,27.66-34,39,2.53,9.75,16.27,13.8,17,14,27.55,7.73,48.14-27.48,88-45,18.48-8.12,48.14-15.53,93-6-17.72,6.47-29.77,21.35-30,37-.32,21.77,22.38,34.84,35,39,17.28,5.7,33,.41,54-7a200.6,200.6,0,0,0,43-21c21.91-14.61,65.8-30.95,162-39-26.17,5.83-43.1,21.24-43,36,.08,11.55,10.56,20.3,15,24,18.69,15.59,39.25,13.8,56,17,19.47,3.72,45.55,16.44,73,57H0C84,168.23,138.36,139.72,173,115Z"/></g></g></svg>