<svg xmlns="http://www.w3.org/2000/svg" xmlns:xlink="http://www.w3.org/1999/xlink" viewBox="0 0 648.23 163.05">
   <defs>
     <style>.cls_1_text{font-size:150px;font-family:MyriadPro-Regular, Myriad Pro;}.cls_2_text{fill:url(#linear_gradient_title);}</style>
     <linearGradient id="linear_gradient_title" x1="10.35" y1="73.13" x2="632.24" y2="73.13" gradientUnits="userSpaceOnUse">
     <stop offset="0" stop-color="#0071bc"/>
     <stop offset="1" stop-color="#ff7bac"/>
     </linearGradient>
   </defs>
     <title>text</title>
     <g id="Layer_2" data-name="Layer 2">
     <g id="Layer_1-2" data-name="Layer 1">
     <text class="cls_1_text" transform="translate(0 125.55)">bot media</text>
     <path class="cls_2_text" d="M10.35,125.55c.3-5,.6-12.3.6-18.75V19.06H24V64.65h.3C29,56.55,37.35,51.3,49.05,51.3c18,0,30.75,15,30.6,37.05,0,26-16.35,38.85-32.55,38.85-10.5,0-18.9-4-24.3-13.65h-.45l-.6,12ZM24,96.45a24.71,24.71,0,0,0,.6,4.8c2.55,9.15,10.2,15.45,19.8,15.45,13.8,0,22.05-11.25,22.05-27.9,0-14.55-7.5-27-21.6-27-9,0-17.4,6.15-20.1,16.2A26,26,0,0,0,24,83.4Z"/>
     <path class="cls_2_text" d="M162,88.65c0,26.85-18.59,38.55-36.14,38.55-19.65,0-34.8-14.4-34.8-37.35,0-24.3,15.9-38.55,36-38.55C147.9,51.3,162,66.45,162,88.65Zm-57.59.75c0,15.9,9.15,27.9,22,27.9,12.6,0,22-11.85,22-28.2,0-12.3-6.15-27.9-21.75-27.9S104.4,75.6,104.4,89.4Z"/>
     <path class="cls_2_text" d="M194.55,32.1V53h18.9V63h-18.9v39.15c0,9,2.55,14.1,9.9,14.1a29.36,29.36,0,0,0,7.65-.9l.6,9.9a32.31,32.31,0,0,1-11.7,1.8c-6.15,0-11.1-2-14.25-5.55-3.75-3.9-5.1-10.35-5.1-18.9V63H170.4V53h11.25V35.55Z"/>
     <path class="cls_2_text" d="M260.09,72.6c0-7.5-.15-13.65-.6-19.65H271l.6,11.7h.45c4.05-6.9,10.8-13.35,22.8-13.35,9.9,0,17.4,6,20.55,14.55h.3a29.91,29.91,0,0,1,8.1-9.45c4.35-3.3,9.15-5.1,16.05-5.1,9.6,0,23.85,6.3,23.85,31.5v42.75h-12.9V84.45c0-14-5.1-22.35-15.75-22.35-7.5,0-13.35,5.55-15.6,12a21.74,21.74,0,0,0-1.05,6.6v44.85h-12.9V82.05c0-11.55-5.1-19.95-15.15-19.95-8.25,0-14.25,6.6-16.35,13.2A18.19,18.19,0,0,0,273,81.75v43.8h-12.9Z"/>
     <path class="cls_2_text" d="M392.54,91.65c.3,17.85,11.7,25.2,24.9,25.2,9.45,0,15.15-1.65,20.1-3.75l2.25,9.45c-4.65,2.1-12.6,4.5-24.15,4.5-22.35,0-35.7-14.7-35.7-36.6S392.84,51.3,414,51.3c23.7,0,30,20.85,30,34.2a49.79,49.79,0,0,1-.45,6.15Zm38.7-9.45c.15-8.4-3.45-21.45-18.3-21.45-13.35,0-19.2,12.3-20.25,21.45Z"/>
     <path class="cls_2_text" d="M523,19.06V106.8c0,6.45.15,13.8.6,18.75H511.79l-.6-12.6h-.3c-4.05,8.1-12.9,14.25-24.75,14.25-17.55,0-31.05-14.85-31.05-36.9-.15-24.15,14.85-39,32.55-39,11.1,0,18.6,5.25,21.9,11.1h.3V19.06ZM509.84,82.5a23.3,23.3,0,0,0-.6-5.55,19.41,19.41,0,0,0-19.05-15.3c-13.65,0-21.75,12-21.75,28.05,0,14.7,7.2,26.85,21.45,26.85,8.85,0,16.95-5.85,19.35-15.75a22.93,22.93,0,0,0,.6-5.7Z"/>
     <path class="cls_2_text" d="M559.64,32.55c.15,4.5-3.15,8.1-8.4,8.1a7.85,7.85,0,0,1-8-8.1,8,8,0,0,1,8.25-8.25C556.49,24.3,559.64,27.9,559.64,32.55Zm-14.7,93V53h13.2v72.6Z"/>
     <path class="cls_2_text" d="M620.24,125.55l-1-9.15h-.45c-4,5.7-11.85,10.8-22.2,10.8-14.7,0-22.2-10.35-22.2-20.85,0-17.55,15.6-27.15,43.65-27v-1.5c0-6-1.65-16.8-16.5-16.8a36.17,36.17,0,0,0-18.9,5.4l-3-8.7c6-3.9,14.7-6.45,23.85-6.45,22.2,0,27.6,15.15,27.6,29.7v27.15a102.22,102.22,0,0,0,1.2,17.4Zm-2-37c-14.4-.3-30.75,2.25-30.75,16.35,0,8.55,5.7,12.6,12.45,12.6a18.06,18.06,0,0,0,17.55-12.15,13.78,13.78,0,0,0,.75-4.2Z"/>
     </g>
     </g>
</svg>